<svg xmlns="http://www.w3.org/2000/svg" viewBox="0 0 48 64" fill="none">
  <path d="M24 62 C24 44 24 26 24 6" stroke="#9aa97f" stroke-width="2" stroke-linecap="round"/>
  <g fill="#c2cda6" stroke="#9aa97f" stroke-width="1.2">
    <ellipse cx="15" cy="20" rx="9" ry="5" transform="rotate(-40 15 20)"/>
    <ellipse cx="33" cy="28" rx="9" ry="5" transform="rotate(40 33 28)"/>
    <ellipse cx="15" cy="36" rx="8" ry="4.5" transform="rotate(-40 15 36)"/>
    <ellipse cx="33" cy="44" rx="8" ry="4.5" transform="rotate(40 33 44)"/>
  </g>
  <g transform="translate(24,8)">
    <g fill="#ecc9c0" stroke="#cf9d94" stroke-width="1">
      <ellipse cx="0" cy="-6" rx="3.4" ry="5.6"/>
      <ellipse cx="5.6" cy="-2" rx="3.4" ry="5.6" transform="rotate(72)"/>
      <ellipse cx="3.5" cy="5" rx="3.4" ry="5.6" transform="rotate(144)"/>
      <ellipse cx="-3.5" cy="5" rx="3.4" ry="5.6" transform="rotate(216)"/>
      <ellipse cx="-5.6" cy="-2" rx="3.4" ry="5.6" transform="rotate(288)"/>
    </g>
    <circle r="2.6" fill="#e7b27f"/>
  </g>
</svg>
